<svg xmlns="http://www.w3.org/2000/svg" xml:space="preserve" viewBox="0 0 40 40"><path fill="#FFF" d="M19.97 2.85c10.88 0 17.67 7.24 17.67 18.12 0 10.93-6.79 18.17-17.67 18.17-10.88 0-17.62-7.24-17.62-18.17 0-10.89 6.74-18.12 17.62-18.12zm0 30.55c7.14 0 11.43-4.79 11.43-12.43 0-7.59-4.29-12.38-11.43-12.38-7.19 0-11.38 4.79-11.38 12.38 0 7.64 4.19 12.43 11.38 12.43z"/><linearGradient id="a" x1="2.329" x2="37.632" y1="20.657" y2="20.657" gradientUnits="userSpaceOnUse"><stop offset="0" style="stop-color:#c100e9"/><stop offset=".041" style="stop-color:#c402e0"/><stop offset=".108" style="stop-color:#ca06c6"/><stop offset=".194" style="stop-color:#d50e9d"/><stop offset=".295" style="stop-color:#e51863"/><stop offset=".408" style="stop-color:#f8251a"/><stop offset=".446" style="stop-color:#ff2a00"/><stop offset=".731" style="stop-color:#d47c00"/><stop offset=".994" style="stop-color:#7600ff"/></linearGradient><path fill="url(#a)" d="M19.96 2.51c10.89 0 17.68 7.24 17.68 18.13 0 10.94-6.79 18.18-17.68 18.18S2.33 31.57 2.33 20.63c0-10.88 6.74-18.12 17.63-18.12zm0 30.56c7.14 0 11.43-4.79 11.43-12.43 0-7.59-4.29-12.38-11.43-12.38-7.19 0-11.38 4.79-11.38 12.38-.01 7.63 4.19 12.43 11.38 12.43z"/></svg>