<svg xmlns="http://www.w3.org/2000/svg" xml:space="preserve" id="Layer_1" x="0" y="0" style="enable-background:new 0 0 170 36" version="1.1" viewBox="0 0 170 36"><style>.st1{fill:url(#SVGID_00000051379758049349516560000004764287096254033316_)}</style><path d="M29.89 2.23c9.38 0 15.23 6.24 15.23 15.62 0 9.42-5.85 15.66-15.23 15.66S14.7 27.27 14.7 17.85c0-9.38 5.81-15.62 15.19-15.62zm0 26.33c6.15 0 9.85-4.13 9.85-10.71 0-6.54-3.7-10.67-9.85-10.67-6.2 0-9.81 4.13-9.81 10.67 0 6.58 3.61 10.71 9.81 10.71zM52.26 2.79V13.5c1.03-1.33 3.23-2.45 6.33-2.45 6.28 0 10.76 4.48 10.76 11.15 0 6.63-4.48 11.06-11.02 11.06-6.28 0-11.23-4.13-11.23-11.06V2.79h5.16zm5.94 12.99c-3.57 0-5.94 2.37-5.94 6.37s2.37 6.37 5.94 6.37c3.61 0 5.98-2.37 5.98-6.37s-2.37-6.37-5.98-6.37zM70.2 11.39h17.21v3.44l-9.98 13.34h9.98v4.73H70.2v-3.44l10.03-13.34H70.2v-4.73zM99.46 11.09c6.67 0 11.1 4.43 11.1 11.06 0 6.67-4.43 11.14-11.1 11.14s-11.14-4.48-11.14-11.14c-.01-6.63 4.47-11.06 11.14-11.06zm-.05 17.47c3.62 0 5.98-2.37 5.98-6.37s-2.37-6.37-5.98-6.37c-3.57 0-5.94 2.37-5.94 6.37.01 4 2.37 6.37 5.94 6.37zM123.21 11v4.73c-3.44 0-5.51 1.68-5.51 5.12V32.9h-5.16V20.86c0-6.54 4.13-9.86 10.67-9.86zM145.71 22.24v10.67h-5.16v-2.07c-1.03 1.33-3.23 2.45-6.37 2.45-6.24 0-10.71-4.48-10.71-11.14 0-6.63 4.47-11.06 11.1-11.06 6.66 0 11.14 4.48 11.14 11.15zm-11.1-6.42c-3.62 0-5.98 2.37-5.98 6.37s2.37 6.37 5.98 6.37c3.57 0 5.94-2.37 5.94-6.37-.01-4-2.37-6.37-5.94-6.37zM151.47 26.97c1.89 0 3.18 1.25 3.18 3.14 0 1.94-1.29 3.18-3.18 3.18s-3.18-1.25-3.18-3.18c0-1.89 1.29-3.14 3.18-3.14z"/><linearGradient id="SVGID_1_" x1="14.685" x2="45.101" y1="17.582" y2="17.582" gradientUnits="userSpaceOnUse"><stop offset="0" style="stop-color:#c100e9"/><stop offset=".041" style="stop-color:#c402e0"/><stop offset=".108" style="stop-color:#ca06c6"/><stop offset=".194" style="stop-color:#d50e9d"/><stop offset=".295" style="stop-color:#e51863"/><stop offset=".408" style="stop-color:#f8251a"/><stop offset=".446" style="stop-color:#ff2a00"/><stop offset=".731" style="stop-color:#d47c00"/><stop offset=".994" style="stop-color:#7600ff"/></linearGradient><path d="M29.87 1.94c9.38 0 15.23 6.24 15.23 15.62 0 9.42-5.85 15.66-15.23 15.66s-15.19-6.24-15.19-15.66c0-9.38 5.81-15.62 15.19-15.62zm0 26.33c6.15 0 9.85-4.13 9.85-10.71 0-6.54-3.7-10.67-9.85-10.67-6.2 0-9.81 4.13-9.81 10.67 0 6.58 3.62 10.71 9.81 10.71z" style="fill:url(#SVGID_1_)"/><linearGradient id="SVGID_00000121992735207094023920000008376243866053755021_" x1="88.213" x2="110.598" y1="21.928" y2="21.928" gradientUnits="userSpaceOnUse"><stop offset="0" style="stop-color:#c100e9"/><stop offset=".041" style="stop-color:#c402e0"/><stop offset=".108" style="stop-color:#ca06c6"/><stop offset=".194" style="stop-color:#d50e9d"/><stop offset=".295" style="stop-color:#e51863"/><stop offset=".408" style="stop-color:#f8251a"/><stop offset=".446" style="stop-color:#ff2a00"/><stop offset=".731" style="stop-color:#d47c00"/><stop offset=".994" style="stop-color:#7600ff"/></linearGradient><path d="M99.43 10.83c6.71 0 11.17 4.43 11.17 11.06 0 6.67-4.46 11.14-11.17 11.14s-11.21-4.47-11.21-11.14c-.01-6.63 4.5-11.06 11.21-11.06zm-.05 17.47c3.64 0 6.02-2.37 6.02-6.37s-2.38-6.37-6.02-6.37c-3.59 0-5.98 2.37-5.98 6.37.01 4 2.39 6.37 5.98 6.37z" style="fill:url(#SVGID_00000121992735207094023920000008376243866053755021_)"/></svg>