<svg xmlns="http://www.w3.org/2000/svg" xml:space="preserve" viewBox="0 0 40 40"><path fill="gray" d="M19.6 1.98c7.93 0 12.87 5.27 12.87 13.2 0 7.96-4.95 13.24-12.87 13.24-7.93 0-12.84-5.27-12.84-13.24 0-7.92 4.91-13.2 12.84-13.2zm0 22.26c5.2 0 8.33-3.49 8.33-9.05 0-5.53-3.13-9.02-8.33-9.02-5.24 0-8.29 3.49-8.29 9.02 0 5.56 3.05 9.05 8.29 9.05z"/><g fill="#FFF"><path d="M4.75 28.54c2.59 0 4.21 1.73 4.21 4.32 0 2.61-1.62 4.33-4.21 4.33s-4.2-1.73-4.2-4.33 1.61-4.32 4.2-4.32zm0 7.28c1.7 0 2.73-1.14 2.73-2.96 0-1.81-1.02-2.95-2.73-2.95s-2.71 1.14-2.71 2.95c0 1.82 1 2.96 2.71 2.96zM10.94 28.69v2.96c.29-.37.89-.68 1.75-.68 1.74 0 2.98 1.24 2.98 3.08 0 1.83-1.24 3.06-3.05 3.06-1.74 0-3.11-1.14-3.11-3.06v-5.37h1.43zm1.64 3.6c-.99 0-1.64.66-1.64 1.76 0 1.11.65 1.76 1.64 1.76 1 0 1.65-.65 1.65-1.76.01-1.11-.65-1.76-1.65-1.76zM15.91 31.07h4.76v.95l-2.76 3.69h2.76v1.31h-4.76v-.95l2.77-3.69h-2.77v-1.31zM24 30.99c1.84 0 3.07 1.23 3.07 3.06 0 1.84-1.23 3.08-3.07 3.08-1.85 0-3.08-1.24-3.08-3.08 0-1.83 1.23-3.06 3.08-3.06zm-.01 4.83c1 0 1.65-.65 1.65-1.76 0-1.11-.65-1.76-1.65-1.76-.99 0-1.64.65-1.64 1.76 0 1.11.65 1.76 1.64 1.76zM30.57 30.97v1.31c-.95 0-1.52.46-1.52 1.42v3.33h-1.43V33.7c0-1.82 1.14-2.73 2.95-2.73zM36.79 34.07v2.95h-1.43v-.57c-.29.37-.89.68-1.76.68-1.73 0-2.96-1.24-2.96-3.08 0-1.83 1.24-3.06 3.07-3.06 1.85 0 3.08 1.24 3.08 3.08zm-3.07-1.77c-1 0-1.65.65-1.65 1.76 0 1.11.66 1.76 1.65 1.76.99 0 1.64-.65 1.64-1.76.01-1.11-.65-1.76-1.64-1.76zM38.39 35.38c.52 0 .88.35.88.87 0 .54-.36.88-.88.88s-.88-.35-.88-.88c0-.52.36-.87.88-.87z"/></g></svg>