<svg xmlns="http://www.w3.org/2000/svg" xml:space="preserve" viewBox="0 0 40 40"><path d="M19.97 2.73c10.7 0 17.38 7.12 17.38 17.82 0 10.75-6.68 17.87-17.38 17.87S2.64 31.3 2.64 20.55C2.65 9.85 9.27 2.73 19.97 2.73zm0 30.04c7.02 0 11.24-4.71 11.24-12.22 0-7.46-4.22-12.17-11.24-12.17-7.07 0-11.19 4.71-11.19 12.17 0 7.51 4.13 12.22 11.19 12.22z"/><linearGradient id="a" x1="2.626" x2="37.333" y1="20.242" y2="20.242" gradientUnits="userSpaceOnUse"><stop offset="0" style="stop-color:#c100e9"/><stop offset=".041" style="stop-color:#c402e0"/><stop offset=".108" style="stop-color:#ca06c6"/><stop offset=".194" style="stop-color:#d50e9d"/><stop offset=".295" style="stop-color:#e51863"/><stop offset=".408" style="stop-color:#f8251a"/><stop offset=".446" style="stop-color:#ff2a00"/><stop offset=".731" style="stop-color:#d47c00"/><stop offset=".994" style="stop-color:#7600ff"/></linearGradient><path fill="url(#a)" d="M19.96 2.4c10.7 0 17.38 7.12 17.38 17.82 0 10.75-6.68 17.87-17.38 17.87S2.63 30.97 2.63 20.22C2.63 9.52 9.25 2.4 19.96 2.4zm0 30.04c7.02 0 11.24-4.71 11.24-12.22 0-7.46-4.22-12.17-11.24-12.17-7.07 0-11.19 4.71-11.19 12.17-.01 7.51 4.12 12.22 11.19 12.22z"/></svg>